<svg width="27" height="32" viewBox="0 0 16 19" fill="none" xmlns="http://www.w3.org/2000/svg">
<path d="M5.35194 1.968C4.34394 2 3.56794 2.384 3.02394 3.12C2.49594 3.856 2.23194 5.128 2.23194 6.936C2.23194 7.528 2.28794 7.944 2.39994 8.184C2.51194 8.408 2.56794 8.536 2.56794 8.568C1.70394 8.568 1.05594 8.392 0.623936 8.04C0.207936 7.672 -6.44401e-05 7.072 -6.44401e-05 6.24C-6.44401e-05 5.104 0.279936 4.072 0.839936 3.144C1.39994 2.2 2.28794 1.44 3.50394 0.863999C4.73594 0.287999 6.29594 -1.43051e-06 8.18394 -1.43051e-06C8.56794 -1.43051e-06 9.07994 0.0399985 9.71994 0.119998C10.8719 0.231999 11.6879 0.287999 12.1679 0.287999C13.0159 0.287999 13.7359 0.191999 14.3279 -1.43051e-06C14.2799 0.143999 14.1919 0.463999 14.0639 0.959999C13.9359 1.44 13.7039 1.856 13.3679 2.208C13.0479 2.544 12.6079 2.768 12.0479 2.88C11.1039 2.88 9.98394 2.728 8.68794 2.424L7.67994 7.2H11.1839L10.7999 8.976H7.29594L5.35194 18H1.89594L5.35194 1.968Z" fill="black"/>
<path d="M13.4396 18.096C12.9116 18.096 12.4636 17.912 12.0956 17.544C11.7276 17.176 11.5436 16.728 11.5436 16.2C11.5436 15.672 11.7276 15.224 12.0956 14.856C12.4636 14.472 12.9116 14.28 13.4396 14.28C13.9676 14.28 14.4156 14.472 14.7836 14.856C15.1676 15.224 15.3596 15.672 15.3596 16.2C15.3596 16.728 15.1676 17.176 14.7836 17.544C14.4156 17.912 13.9676 18.096 13.4396 18.096Z" fill="#FF7426"/>
</svg>
